# xmcd CD database file
#
# Track frame offsets:
#	150
#	23608
#	57036
#	83091
#	108272
#	142221
#	160930
#	186273
#	216837
#	235969
#
# Disc length: 3601 seconds
#
# Revision: 2
# Processed by: cddbd v1.5.2PL0 Copyright (c) Steve Scherf et al.
# Submitted via: CDex 1.70beta2
#
DISCID=830e0f0a
DTITLE=Julian Fischer Quartet - Stay
DYEAR=2011
DGENRE=Jazz
TTITLE0=Quiet Journey
TTITLE1=Grasshopper
TTITLE2=Acrophobia
TTITLE3=When can I be close to you again?
TTITLE4=Stay
TTITLE5=Song for Kenny
TTITLE6=D.G.
TTITLE7=Six on Four
TTITLE8=Early Sleep
TTITLE9=Moving out
EXTD=YEAR: 2011
EXTT0=
EXTT1=
EXTT2=
EXTT3=
EXTT4=
EXTT5=
EXTT6=
EXTT7=
EXTT8=
EXTT9=
PLAYORDER=
